<svg xmlns="http://www.w3.org/2000/svg" viewBox="0 0 160 160" role="img" aria-label="Cassava illustration">
  <defs>
    <linearGradient id="bg" x1="0" y1="0" x2="1" y2="1">
      <stop offset="0%" stop-color="#3a2d1f" />
      <stop offset="100%" stop-color="#6f4e37" />
    </linearGradient>
  </defs>
  <rect width="160" height="160" rx="20" fill="url(#bg)" />
  <path d="M44 68c0-9 7-16 16-16h16c9 0 16 7 16 16v8H44z" fill="#4f772d" />
  <path d="M66 76c8 0 14 6 14 14v30c0 7-5 12-12 12s-12-5-12-12V90c0-8 4-14 10-14z" fill="#a47148" />
  <path d="M92 76c8 0 14 6 14 14v26c0 7-5 12-12 12s-12-5-12-12V90c0-8 4-14 10-14z" fill="#8d5524" />
  <path d="M56 100h24M82 102h22" stroke="#d0a27a" stroke-width="3" stroke-linecap="round" />
</svg>
