<svg xmlns="http://www.w3.org/2000/svg" viewBox="0 0 160 160" role="img" aria-label="Habanero illustration">
  <defs>
    <linearGradient id="bg" x1="0" y1="0" x2="1" y2="1">
      <stop offset="0%" stop-color="#1e3b2c" />
      <stop offset="100%" stop-color="#2d6a4f" />
    </linearGradient>
  </defs>
  <rect width="160" height="160" rx="20" fill="url(#bg)" />
  <path d="M65 42c0-8 6-14 15-14s15 6 15 14c0 5-2 10-6 13h-18c-4-3-6-8-6-13z" fill="#4f772d" />
  <path d="M58 65c0-10 9-18 22-18s22 8 22 18v34c0 18-12 31-29 31s-29-13-29-31V65z" fill="#f77f00" />
  <path d="M88 64h14v34c0 18-12 31-29 31-7 0-13-2-18-6 16-2 27-14 27-30V64h6z" fill="#e85d04" />
  <circle cx="74" cy="82" r="6" fill="#ffa94d" opacity="0.7" />
</svg>
