<svg xmlns="http://www.w3.org/2000/svg" viewBox="0 0 160 160" role="img" aria-label="Tomatoes illustration">
  <defs>
    <linearGradient id="bg" x1="0" y1="0" x2="1" y2="1">
      <stop offset="0%" stop-color="#3b1f1f" />
      <stop offset="100%" stop-color="#7f1d1d" />
    </linearGradient>
  </defs>
  <rect width="160" height="160" rx="20" fill="url(#bg)" />
  <circle cx="58" cy="92" r="26" fill="#e03131" />
  <circle cx="102" cy="92" r="26" fill="#d62828" />
  <circle cx="80" cy="70" r="24" fill="#f03e3e" />
  <path d="M80 44l5 8 9 1-7 6 2 9-9-5-9 5 2-9-7-6 9-1z" fill="#4f772d" />
  <path d="M58 67l4 6 7 1-5 5 1 7-7-4-7 4 1-7-5-5 7-1z" fill="#4f772d" />
  <path d="M102 67l4 6 7 1-5 5 1 7-7-4-7 4 1-7-5-5 7-1z" fill="#4f772d" />
</svg>
